<?xml version="1.0" encoding="UTF-8"?>
<svg xmlns="http://www.w3.org/2000/svg" width="958.68" height="731.4" viewBox="0 0 958.68 731.4">
  <g id="background">
    <polygon id="background_low" points="422.82 730.98 194.69 0 0 0 0 730.98 422.82 730.98" style="fill: #ffe300; stroke: #231f20; stroke-miterlimit: 10; stroke-width: 2px;"/>
    <polyline id="background_middle" points="560.67 731.19 422.82 730.98 194.69 0 788.8 .21 560.67 731.19" style="fill: #007dc5; stroke: #231f20; stroke-miterlimit: 10; stroke-width: 2px;"/>
    <polygon id="background_high" points="788.8 .21 958.68 .21 958.68 730.98 560.67 731.19 788.8 .21" style="fill: #740062; stroke: #231f20; stroke-miterlimit: 10; stroke-width: 2px;"/>
  </g>
  <g id="dollar">
    <path id="dollarsign_low" d="M148.07,348.14l.42-28.23c2.38.44,5.02,1.18,7.95,2.33,0,0,6.09,2.9,5.17,11.12l8.45.13s1.28-22.36-21.45-22.49l.12-8.22-6.63-.1-.13,8.56c-17.15,1.36-18.48,8.2-22,17.05-3.91,9.82,8.46,27.4,20.97,26.81.13,0,.26,0,.39,0l-.47,31.34c-9.23-.59-14.49-3.7-15.06-17.6l-8.32-.12s-1.17,16.44,9.25,22.09c4.89,2.65,9.72,3.83,14,4.3l-.13,8.48,6.63.1.12-8.35c1.97-.07,3.68-.24,5.02-.39,5.02-.55,18.29-4.43,19.46-21.03,1.17-16.6-12.98-24.49-23.77-25.75ZM128.77,327.47s2.94-7.35,13.09-8.01l-.41,27.47c-8.1-2.18-14.48-7.19-12.68-19.46ZM163.54,372.2c-1.35,7.58-3.29,14.08-16.04,14.33l.46-30.69c9.43,2.43,16.69,10.18,15.58,16.37Z" style="fill: #231f20; stroke: #231f20; stroke-miterlimit: 10;"/>
    <g id="dollarsign_middle">
      <path id="dollarsign_middle_2" d="M537.68,118.35l.42-28.23c2.38.44,5.02,1.18,7.95,2.33,0,0,6.09,2.9,5.17,11.12l8.45.13s1.28-22.36-21.45-22.49l.12-8.22-6.63-.1-.13,8.56c-17.15,1.36-18.48,8.2-22,17.05-3.91,9.82,8.46,27.4,20.97,26.81.13,0,.26,0,.39,0l-.47,31.34c-9.23-.59-14.49-3.7-15.06-17.6l-8.32-.12s-1.17,16.44,9.25,22.09c4.89,2.65,9.72,3.83,14,4.3l-.13,8.48,6.63.1.12-8.35c1.97-.07,3.68-.24,5.02-.39,5.02-.55,18.29-4.43,19.46-21.03,1.17-16.6-12.98-24.49-23.77-25.75ZM531.07,117.14c-8.1-2.18-14.48-7.19-12.68-19.46,0,0,2.94-7.35,13.09-8.01l-.41,27.47ZM553.15,142.41c-1.35,7.58-3.29,14.08-16.04,14.33l.46-30.69c9.43,2.43,16.69,10.18,15.58,16.37Z" style="fill: #231f20; stroke: #231f20; stroke-miterlimit: 10;"/>
      <path id="dollarsign_middle_1" d="M476.89,118.35l.42-28.23c2.38.44,5.02,1.18,7.95,2.33,0,0,6.09,2.9,5.17,11.12l8.45.13s1.28-22.36-21.45-22.49l.12-8.22-6.63-.1-.13,8.56c-17.15,1.36-18.48,8.2-22,17.05-3.91,9.82,8.46,27.4,20.97,26.81.13,0,.26,0,.39,0l-.47,31.34c-9.23-.59-14.49-3.7-15.06-17.6l-8.32-.12s-1.17,16.44,9.25,22.09c4.89,2.65,9.72,3.83,14,4.3l-.13,8.48,6.63.1.12-8.35c1.97-.07,3.68-.24,5.02-.39,5.02-.55,18.29-4.43,19.46-21.03,1.17-16.6-12.98-24.49-23.77-25.75ZM470.27,117.14c-8.1-2.18-14.48-7.19-12.68-19.46,0,0,2.94-7.35,13.09-8.01l-.41,27.47ZM492.36,142.41c-1.35,7.58-3.29,14.08-16.04,14.33l.46-30.69c9.43,2.43,16.69,10.18,15.58,16.37Z" style="fill: #231f20; stroke: #231f20; stroke-miterlimit: 10;"/>
    </g>
    <g id="dollarsign_high">
      <path id="dollarsign_high_3" d="M892.4,345.47l.42-28.23c2.38.44,5.02,1.18,7.95,2.33,0,0,6.09,2.9,5.17,11.12l8.45.13s1.28-22.36-21.45-22.49l.12-8.22-6.63-.1-.13,8.56c-17.15,1.36-18.48,8.2-22,17.05-3.91,9.82,8.46,27.4,20.97,26.81.13,0,.26,0,.39,0l-.47,31.34c-9.23-.59-14.49-3.7-15.06-17.6l-8.32-.12s-1.17,16.44,9.25,22.09c4.89,2.65,9.72,3.83,14,4.3l-.13,8.48,6.63.1.12-8.35c1.97-.07,3.68-.24,5.02-.39,5.02-.55,18.29-4.43,19.46-21.03,1.17-16.6-12.98-24.49-23.77-25.75ZM885.79,344.26c-8.1-2.18-14.48-7.19-12.68-19.46,0,0,2.94-7.35,13.09-8.01l-.41,27.47ZM907.87,369.53c-1.35,7.58-3.29,14.08-16.04,14.33l.46-30.69c9.43,2.43,16.69,10.18,15.58,16.37Z" style="fill: #231f20; stroke: #231f20; stroke-miterlimit: 10;"/>
      <path id="dollarsign_high_2" d="M829.5,345.47l.42-28.23c2.38.44,5.02,1.18,7.95,2.33,0,0,6.09,2.9,5.17,11.12l8.45.13s1.28-22.36-21.45-22.49l.12-8.22-6.63-.1-.13,8.56c-17.15,1.36-18.48,8.2-22,17.05-3.91,9.82,8.46,27.4,20.97,26.81.13,0,.26,0,.39,0l-.47,31.34c-9.23-.59-14.49-3.7-15.06-17.6l-8.32-.12s-1.17,16.44,9.25,22.09c4.89,2.65,9.72,3.83,14,4.3l-.13,8.48,6.63.1.12-8.35c1.97-.07,3.68-.24,5.02-.39,5.02-.55,18.29-4.43,19.46-21.03,1.17-16.6-12.98-24.49-23.77-25.75ZM822.89,344.26c-8.1-2.18-14.48-7.19-12.68-19.46,0,0,2.94-7.35,13.09-8.01l-.41,27.47ZM844.97,369.53c-1.35,7.58-3.29,14.08-16.04,14.33l.46-30.69c9.43,2.43,16.69,10.18,15.58,16.37Z" style="fill: #231f20; stroke: #231f20; stroke-miterlimit: 10;"/>
      <path id="dollarsign_high_1" d="M768.07,345.47l.42-28.23c2.38.44,5.02,1.18,7.95,2.33,0,0,6.09,2.9,5.17,11.12l8.45.13s1.28-22.36-21.45-22.49l.12-8.22-6.63-.1-.13,8.56c-17.15,1.36-18.48,8.2-22,17.05-3.91,9.82,8.46,27.4,20.97,26.81.13,0,.26,0,.39,0l-.47,31.34c-9.23-.59-14.49-3.7-15.06-17.6l-8.32-.12s-1.17,16.44,9.25,22.09c4.89,2.65,9.72,3.83,14,4.3l-.13,8.48,6.63.1.12-8.35c1.97-.07,3.68-.24,5.02-.39,5.02-.55,18.29-4.43,19.46-21.03,1.17-16.6-12.98-24.49-23.77-25.75ZM761.45,344.26c-8.1-2.18-14.48-7.19-12.68-19.46,0,0,2.94-7.35,13.09-8.01l-.41,27.47ZM783.54,369.53c-1.35,7.58-3.29,14.08-16.04,14.33l.46-30.69c9.43,2.43,16.69,10.18,15.58,16.37Z" style="fill: #231f20; stroke: #231f20; stroke-miterlimit: 10;"/>
    </g>
  </g>
  <g id="oatmeal">
    <g id="oatmeal_group">
      <path id="oats" d="M328.67,549.46s-37.22,1.24-42.98-40.74c-5.76-41.98,38.75-44.68,38.07-40.74-.69,3.93-2.61-44.89,42.98-46.57,0,0,23.41,3.45,22.1,5.82-1.31,2.37,5.38-6.49,20.88-5.82,15.5.67,28.24,12.81,28.24,12.81h14.74s13.77-25.01,42.98-24.45,42.98,25.61,42.98,25.61c0,0,11.25-5.53,28.24,1.16,0,0,11.14-18.16,33.16-15.13,22.01,3.02,35.68,7.13,42.98,34.92,0,0,23.26-2.88,35.61,24.45,0,0,23.88,5.41,24.56,33.76.68,28.35-29.24,36.8-36.84,34.92-7.6-1.88-337.69,0-337.69,0Z" style="fill: #f9dcb3; stroke: #231f20; stroke-miterlimit: 10;"/>
      <path id="spoon" d="M376.51,245.48l-17.23,8.62c-8.62,4.31-12.93,14.36-8.62,22.98l90.48,179.52c10.05-2.87,21.54-2.87,31.59,0l8.62-15.8-81.86-186.7c-4.31-8.62-14.36-11.49-22.98-8.62Z" style="fill: #cdcfd0; stroke: #231f20; stroke-miterlimit: 10;"/>
      <path id="blueberries" d="M601.75,493.2c0-7.39,4.93-12.32,12.32-12.32s12.32,4.93,12.32,12.32-4.93,12.32-12.32,12.32-12.32-4.93-12.32-12.32ZM510.83,504.82c7.39,0,12.32-4.93,12.32-12.32s-4.93-12.32-12.32-12.32-12.32,4.93-12.32,12.32,4.93,12.32,12.32,12.32ZM563.2,476.11c7.39,0,12.32-4.93,12.32-12.32s-4.93-12.32-12.32-12.32-12.32,4.93-12.32,12.32,4.93,12.32,12.32,12.32ZM402.37,508.04c7.39,0,12.32-4.93,12.32-12.32s-4.93-12.32-12.32-12.32-12.32,4.93-12.32,12.32,4.93,12.32,12.32,12.32ZM382.79,461.4c7.39,0,12.32-4.93,12.32-12.32s-4.93-12.32-12.32-12.32-12.32,4.93-12.32,12.32,4.93,12.32,12.32,12.32Z" style="fill: #425eab; stroke: #231f20; stroke-miterlimit: 10; stroke-width: .2px;"/>
      <path id="top_bowl" d="M713.68,517.02c0,108.47-99.4,196.4-222.02,196.4s-222.02-87.93-222.02-196.4h444.05Z" style="fill: #acada6; stroke: #231f20; stroke-miterlimit: 10;"/>
      <rect id="bottom" x="410.51" y="691.85" width="162.3" height="39.14" style="fill: #142313; stroke: #231f20; stroke-miterlimit: 10;"/>
    </g>
  </g>
</svg>