<?xml version="1.0" encoding="UTF-8"?>
<svg id="Layer_1" data-name="Layer 1" xmlns="http://www.w3.org/2000/svg" width="672.7" height="513.61" viewBox="0 0 672.7 513.61">
  <g id="background">
    <polygon id="backgroundHigh" points="552.34 1.15 671.08 1.15 671.08 511.93 392.89 512.08 552.34 1.15" style="fill: #722063; stroke: #231f20; stroke-miterlimit: 10; stroke-width: 2px;"/>
    <polyline id="backgroundMiddle" points="392.89 512.08 296.54 511.93 137.08 1 552.34 1.15 392.89 512.08" style="fill: #127dc2; stroke: #231f20; stroke-miterlimit: 10; stroke-width: 2px;"/>
    <polygon id="backgroundLow" points="296.54 511.93 137.08 1 1 1 1 511.93 296.54 511.93" style="fill: #ffe300; stroke: #231f20; stroke-miterlimit: 10; stroke-width: 2px;"/>
  </g>
  <g id="highlight">
    <ellipse id="highlightHigh" cx="580.39" cy="246.99" rx="76.69" ry="54.07" style="fill: #ec2227;"/>
    <ellipse id="highlightMiddle" cx="354.63" cy="90.07" rx="62.27" ry="51.44" style="fill: #ec2227;"/>
    <ellipse id="highlightLow" cx="101.36" cy="249.34" rx="48.02" ry="51.44" style="fill: #ec2227;"/>
  </g>
  <g id="dollar">
    <path id="dollarsignHigh" d="M624.75,242.49v-.02h0s.29-19.73.29-19.73c1.66.31,3.51.82,5.56,1.63,0,0,4.26,2.03,3.61,7.77l5.91.09s.89-15.63-14.99-15.72l.08-5.75-4.63-.07-.09,5.98c-11.99.95-12.92,5.73-15.38,11.92-2.73,6.86,5.91,19.15,14.66,18.74h.27l-.33,21.91c-6.45-.41-10.13-2.59-10.53-12.3l-5.82-.08s-.82,11.49,6.47,15.44c3.42,1.85,6.79,2.68,9.79,3.01l-.09,5.93,4.63.07.08-5.84c1.38-.05,2.57-.17,3.51-.27,3.51-.38,12.78-3.1,13.6-14.7.82-11.6-9.07-17.12-16.61-18ZM620.13,241.63h0c-5.66-1.52-10.12-5.03-8.86-13.6,0,0,2.05-5.14,9.15-5.6l-.29,19.2ZM635.57,259.3h0c-.94,5.29-2.3,9.83-11.21,10.01l.32-21.45c6.59,1.7,11.67,7.12,10.89,11.44ZM624.51,281.65l-5.33-.08.09-5.96c-3.45-.42-6.68-1.43-9.6-3.01-3.07-1.66-5.19-4.93-6.14-9.44-.71-3.38-.52-6.22-.51-6.34l.02-.33,6.48.09v.33c.4,9.35,3.77,11.48,9.85,11.94l.32-21.18c-5.03.2-9.56-3.59-12.14-7.21-2.99-4.19-4.04-8.79-2.76-12.02.18-.45.35-.89.52-1.33,2.12-5.48,3.79-9.83,14.84-10.78l.09-6.02,5.33.08-.08,5.74c4.66.09,8.33,1.54,10.91,4.29,4.42,4.71,4.09,11.51,4.07,11.79l-.02.33-6.63-.1.04-.38c.61-5.42-3.25-7.34-3.42-7.42-1.73-.68-3.44-1.19-5.06-1.52l-.28,19.02c4.22.56,8.33,2.38,11.31,5.02,3.83,3.4,5.66,8,5.29,13.31-.93,13.22-12.59,14.88-13.91,15.02-.83.09-1.93.21-3.2.26l-.08,5.86ZM619.89,280.88l3.93.06.08-5.82h.33c1.39-.06,2.59-.18,3.48-.28,1.27-.14,12.4-1.72,13.29-14.38.38-5.39-2.54-16.02-16.31-17.63l-.31-.04v-.68s.31-19.8.31-19.8l.41.08c1.79.33,3.68.88,5.62,1.65.07.03,4.31,2.12,3.87,7.75l5.18.08c0-1.42-.22-7.03-3.9-10.94-2.51-2.67-6.13-4.04-10.76-4.07h-.35s.08-5.75.08-5.75l-3.94-.06-.09,5.95-.32.03c-10.89.86-12.43,4.85-14.56,10.36-.17.44-.34.88-.52,1.34-1.2,3.01-.17,7.35,2.68,11.35,2.49,3.49,6.84,7.14,11.64,6.91h.64s-.34,22.63-.34,22.63l-.37-.02c-6.49-.42-10.36-2.57-10.84-12.31l-5.15-.07c-.06,1.89-.02,11.35,6.3,14.78,2.93,1.58,6.17,2.58,9.66,2.97l.32.03-.09,5.9ZM624,269.66l.33-22.26.43.11c6.76,1.74,11.97,7.27,11.15,11.84h0c-.99,5.53-2.54,10.12-11.55,10.3h-.36ZM625.02,248.31l-.31,20.64c8.18-.28,9.56-4.39,10.51-9.72h0c.72-4.06-4.1-9.17-10.2-10.92ZM620.48,242.08l-.43-.12c-7.23-1.95-10.21-6.52-9.12-13.99l.02-.08c.02-.05,2.22-5.35,9.45-5.82l.38-.02-.3,20.03ZM611.61,228.12c-1,6.88,1.68,11.15,8.18,13.05l.27-18.36c-6.25.57-8.25,4.84-8.46,5.31ZM580.78,242.49v-.02h0s.29-19.73.29-19.73c1.66.31,3.51.82,5.56,1.63,0,0,4.26,2.03,3.61,7.77l5.91.09s.89-15.63-14.99-15.72l.08-5.75-4.63-.07-.09,5.98c-11.99.95-12.92,5.73-15.38,11.92-2.73,6.86,5.91,19.15,14.66,18.74h.27l-.33,21.91c-6.45-.41-10.13-2.59-10.53-12.3l-5.82-.08s-.82,11.49,6.47,15.44c3.42,1.85,6.79,2.68,9.79,3.01l-.09,5.93,4.63.07.08-5.84c1.38-.05,2.57-.17,3.51-.27,3.51-.38,12.78-3.1,13.6-14.7.82-11.6-9.07-17.12-16.61-18ZM576.17,241.63h0c-5.66-1.52-10.12-5.03-8.86-13.6,0,0,2.05-5.14,9.15-5.6l-.29,19.2ZM591.6,259.3h0c-.94,5.29-2.3,9.83-11.21,10.01l.32-21.45c6.59,1.7,11.67,7.12,10.89,11.44ZM580.55,281.65l-5.33-.08.09-5.96c-3.45-.42-6.68-1.43-9.6-3.01-3.07-1.66-5.19-4.93-6.14-9.44-.71-3.38-.52-6.22-.51-6.34l.02-.33,6.48.09v.33c.4,9.35,3.76,11.48,9.85,11.94l.32-21.18c-5.02.2-9.56-3.59-12.14-7.21-2.99-4.19-4.04-8.79-2.76-12.02.18-.45.35-.89.52-1.33,2.12-5.48,3.79-9.83,14.84-10.78l.09-6.02,5.33.08-.08,5.74c4.66.09,8.33,1.54,10.91,4.29,4.43,4.71,4.09,11.51,4.07,11.79l-.02.33-6.63-.1.04-.38c.61-5.42-3.25-7.34-3.42-7.42-1.73-.68-3.44-1.19-5.06-1.52l-.28,19.02c4.22.56,8.33,2.38,11.31,5.02,3.83,3.4,5.66,8,5.29,13.31-.93,13.22-12.59,14.88-13.91,15.02-.83.09-1.93.2-3.2.26l-.08,5.86ZM575.92,280.88l3.93.06.08-5.82h.33c1.39-.06,2.59-.18,3.48-.28,1.27-.14,12.4-1.72,13.29-14.38.38-5.39-2.54-16.02-16.31-17.63l-.31-.04v-.68s.31-19.8.31-19.8l.41.08c1.79.33,3.68.88,5.62,1.65.07.03,4.31,2.12,3.87,7.75l5.18.08c0-1.42-.22-7.03-3.9-10.94-2.51-2.67-6.13-4.04-10.76-4.07h-.35s.08-5.75.08-5.75l-3.94-.06-.09,5.95-.32.03c-10.89.86-12.43,4.85-14.56,10.36-.17.44-.34.88-.52,1.34-1.2,3.01-.17,7.35,2.68,11.35,2.49,3.49,6.82,7.14,11.64,6.91h.64s-.34,22.63-.34,22.63l-.37-.02c-6.49-.42-10.36-2.57-10.84-12.31l-5.15-.07c-.06,1.89-.02,11.35,6.3,14.78,2.92,1.58,6.17,2.58,9.66,2.97l.32.03-.09,5.9ZM580.04,269.66l.33-22.26.43.11c6.76,1.74,11.97,7.27,11.15,11.84h0c-.98,5.53-2.54,10.12-11.55,10.3h-.36ZM581.06,248.31l-.31,20.64c8.18-.28,9.56-4.39,10.51-9.72h0c.72-4.06-4.1-9.17-10.2-10.92ZM576.51,242.08l-.43-.12c-7.23-1.95-10.21-6.52-9.12-13.99l.02-.08c.02-.05,2.22-5.35,9.45-5.82l.38-.02-.3,20.03ZM567.65,228.12c-.99,6.88,1.68,11.15,8.18,13.05l.27-18.36c-6.25.57-8.25,4.84-8.46,5.31ZM537.85,242.49v-.02h0s.29-19.73.29-19.73c1.66.31,3.51.82,5.56,1.63,0,0,4.26,2.03,3.61,7.77l5.91.09s.89-15.63-14.99-15.72l.08-5.75-4.63-.07-.09,5.98c-11.99.95-12.92,5.73-15.38,11.92-2.73,6.86,5.91,19.15,14.66,18.74h.27l-.33,21.91c-6.45-.41-10.13-2.59-10.53-12.3l-5.82-.08s-.82,11.49,6.47,15.44c3.42,1.85,6.79,2.68,9.79,3.01l-.09,5.93,4.63.07.08-5.84c1.38-.05,2.57-.17,3.51-.27,3.51-.38,12.78-3.1,13.6-14.7.82-11.6-9.07-17.12-16.61-18ZM533.23,241.63h0c-5.66-1.52-10.12-5.03-8.86-13.6,0,0,2.05-5.14,9.15-5.6l-.29,19.2ZM548.67,259.3h0c-.94,5.29-2.3,9.83-11.21,10.01l.32-21.45c6.59,1.7,11.67,7.12,10.89,11.44ZM537.61,281.65l-5.33-.08.09-5.96c-3.45-.42-6.68-1.43-9.6-3.01-3.07-1.66-5.19-4.93-6.14-9.44-.71-3.38-.52-6.22-.51-6.34l.02-.33,6.48.09v.33c.4,9.35,3.77,11.48,9.85,11.94l.32-21.18c-5.02.2-9.56-3.59-12.14-7.21-2.99-4.19-4.04-8.79-2.76-12.02.18-.45.35-.89.52-1.33,2.12-5.48,3.79-9.83,14.84-10.78l.09-6.02,5.33.08-.08,5.74c4.66.09,8.33,1.54,10.91,4.29,4.42,4.71,4.09,11.51,4.07,11.79l-.02.33-6.63-.1.04-.38c.61-5.42-3.25-7.34-3.42-7.42-1.73-.68-3.44-1.19-5.06-1.52l-.28,19.02c4.22.56,8.33,2.38,11.31,5.02,3.83,3.4,5.66,8,5.29,13.31-.93,13.22-12.59,14.88-13.91,15.02-.83.09-1.93.21-3.2.26l-.08,5.86ZM532.99,280.88l3.94.06.08-5.82h.33c1.39-.06,2.59-.18,3.48-.28,1.27-.14,12.4-1.72,13.29-14.38.38-5.39-2.54-16.02-16.31-17.63l-.31-.04v-.68s.31-19.8.31-19.8l.41.08c1.79.33,3.68.88,5.62,1.65.07.03,4.31,2.12,3.87,7.75l5.18.08c0-1.42-.22-7.03-3.9-10.94-2.51-2.67-6.13-4.04-10.76-4.07h-.35s.08-5.75.08-5.75l-3.94-.06-.09,5.95-.32.03c-10.89.86-12.43,4.85-14.56,10.36-.17.44-.34.88-.52,1.34-1.2,3.01-.17,7.35,2.68,11.35,2.49,3.49,6.82,7.14,11.64,6.91h.64s-.34,22.63-.34,22.63l-.37-.02c-6.49-.42-10.36-2.57-10.84-12.31l-5.15-.07c-.06,1.89-.02,11.35,6.3,14.78,2.92,1.58,6.17,2.58,9.66,2.97l.32.03-.09,5.9ZM537.1,269.66l.33-22.26.43.11c6.76,1.74,11.97,7.27,11.15,11.84h0c-.98,5.53-2.54,10.12-11.55,10.3h-.36ZM538.12,248.31l-.31,20.64c8.18-.28,9.56-4.39,10.51-9.72h0c.72-4.06-4.1-9.17-10.2-10.92ZM533.57,242.08l-.43-.12c-7.23-1.95-10.21-6.52-9.12-13.99l.02-.08c.02-.05,2.22-5.35,9.45-5.82l.38-.02-.3,20.03ZM524.7,228.12c-.99,6.88,1.68,11.15,8.18,13.05l.27-18.36c-6.25.57-8.25,4.84-8.46,5.31Z" style="fill: #231f20; stroke: #231f20; stroke-miterlimit: 10;"/>
    <path id="dollarsignMiddle" d="M376.81,83.74v-.02h0l.29-19.73c1.66.31,3.51.82,5.56,1.63,0,0,4.26,2.03,3.61,7.77l5.91.09s.89-15.63-14.99-15.72l.08-5.75-4.63-.07-.09,5.98c-11.99.95-12.92,5.73-15.38,11.92-2.73,6.86,5.91,19.15,14.66,18.74h.27l-.33,21.91c-6.45-.41-10.13-2.59-10.53-12.3l-5.82-.08s-.82,11.49,6.47,15.44c3.42,1.85,6.79,2.68,9.79,3.01l-.09,5.93,4.63.07.08-5.84c1.38-.05,2.57-.17,3.51-.27,3.51-.38,12.78-3.1,13.6-14.7.82-11.6-9.07-17.12-16.61-18ZM372.2,82.88h0c-5.66-1.52-10.12-5.03-8.86-13.6,0,0,2.05-5.14,9.15-5.6l-.29,19.2ZM387.63,100.55h0c-.94,5.29-2.3,9.83-11.21,10.01l.32-21.45c6.59,1.7,11.67,7.12,10.89,11.44ZM376.58,122.9l-5.33-.08.09-5.96c-3.45-.42-6.68-1.43-9.6-3.01-3.07-1.67-5.19-4.93-6.14-9.44-.71-3.38-.52-6.22-.51-6.34l.02-.33,6.48.09v.33c.4,9.35,3.77,11.48,9.85,11.94l.32-21.18c-4.99.2-9.56-3.59-12.14-7.21-2.99-4.19-4.04-8.79-2.76-12.02.18-.45.35-.89.52-1.33,2.12-5.48,3.79-9.83,14.84-10.78l.09-6.02,5.33.08-.08,5.74c4.66.09,8.33,1.54,10.91,4.29,4.42,4.71,4.09,11.51,4.07,11.79l-.02.33-6.63-.1.04-.38c.61-5.42-3.25-7.34-3.42-7.42-1.73-.68-3.44-1.19-5.06-1.52l-.28,19.02c4.22.56,8.33,2.38,11.31,5.02,3.83,3.4,5.66,8,5.29,13.31-.93,13.22-12.59,14.88-13.91,15.02-.84.09-1.94.21-3.2.26l-.08,5.86ZM371.95,122.14l3.93.06.08-5.82h.33c1.38-.06,2.58-.18,3.48-.28,1.27-.14,12.4-1.72,13.29-14.38.38-5.39-2.54-16.02-16.31-17.63l-.31-.04v-.68s.31-19.8.31-19.8l.41.08c1.79.33,3.68.88,5.62,1.65.07.03,4.31,2.12,3.87,7.75l5.18.08c0-1.42-.22-7.03-3.9-10.94-2.51-2.67-6.13-4.04-10.76-4.07h-.35s.08-5.75.08-5.75l-3.94-.06-.09,5.95-.32.03c-10.89.86-12.43,4.85-14.56,10.36-.17.44-.34.88-.52,1.34-1.2,3.01-.17,7.35,2.68,11.35,2.49,3.49,6.86,7.13,11.64,6.91h.64s-.34,22.63-.34,22.63l-.37-.02c-6.49-.42-10.36-2.57-10.84-12.31l-5.15-.07c-.06,1.89-.02,11.35,6.3,14.78,2.93,1.58,6.17,2.58,9.66,2.97l.32.03-.09,5.9ZM376.07,110.91l.33-22.26.43.11c6.76,1.74,11.96,7.27,11.15,11.84h0c-.99,5.53-2.54,10.12-11.55,10.3h-.36ZM377.08,89.56l-.31,20.64c8.18-.28,9.56-4.39,10.51-9.72h0c.72-4.06-4.1-9.17-10.2-10.92ZM372.54,83.33l-.43-.12c-7.23-1.95-10.21-6.52-9.12-13.99l.02-.08c.02-.05,2.22-5.35,9.45-5.82l.38-.02-.3,20.03ZM363.67,69.37c-.99,6.88,1.68,11.15,8.18,13.05l.27-18.36c-6.25.57-8.25,4.84-8.46,5.31ZM334.32,83.74v-.02h0l.29-19.73c1.66.31,3.51.82,5.56,1.63,0,0,4.26,2.03,3.61,7.77l5.91.09s.89-15.63-14.99-15.72l.08-5.75-4.63-.07-.09,5.98c-11.99.95-12.92,5.73-15.38,11.92-2.73,6.86,5.91,19.15,14.66,18.74h.27l-.33,21.91c-6.45-.41-10.13-2.59-10.53-12.3l-5.82-.08s-.82,11.49,6.47,15.44c3.42,1.85,6.79,2.68,9.79,3.01l-.09,5.93,4.63.07.08-5.84c1.38-.05,2.57-.17,3.51-.27,3.51-.38,12.78-3.1,13.6-14.7.82-11.6-9.07-17.12-16.61-18ZM329.7,82.88c-5.66-1.52-10.12-5.03-8.86-13.6,0,0,2.05-5.14,9.15-5.6l-.29,19.2ZM345.14,100.55h0c-.94,5.29-2.3,9.83-11.21,10.01l.32-21.45c6.59,1.7,11.67,7.12,10.89,11.44ZM334.09,122.9l-5.33-.08.09-5.96c-3.45-.42-6.68-1.43-9.6-3.01-3.07-1.67-5.19-4.93-6.14-9.44-.71-3.38-.52-6.22-.51-6.34l.02-.33,6.48.09v.33c.4,9.35,3.77,11.48,9.85,11.94l.32-21.18c-5.01.19-9.56-3.59-12.14-7.21-2.99-4.19-4.04-8.79-2.76-12.02.18-.45.35-.89.52-1.33,2.12-5.48,3.79-9.83,14.84-10.78l.09-6.02,5.33.08-.08,5.74c4.66.09,8.33,1.54,10.91,4.29,4.42,4.71,4.09,11.51,4.07,11.79l-.02.33-6.63-.1.04-.38c.61-5.42-3.25-7.34-3.42-7.42-1.73-.68-3.44-1.19-5.06-1.52l-.28,19.02c4.22.56,8.33,2.38,11.31,5.02,3.83,3.4,5.66,8,5.29,13.31-.93,13.22-12.59,14.88-13.91,15.02-.84.09-1.94.21-3.2.26l-.08,5.86ZM329.46,122.14l3.93.06.08-5.82h.33c1.38-.06,2.58-.18,3.48-.28,1.27-.14,12.4-1.72,13.29-14.38.38-5.39-2.54-16.02-16.31-17.63l-.31-.04v-.68s.31-19.8.31-19.8l.41.08c1.79.33,3.68.88,5.62,1.65.07.03,4.31,2.12,3.87,7.75l5.18.08c0-1.42-.22-7.03-3.9-10.94-2.51-2.67-6.13-4.04-10.76-4.07h-.35s.08-5.75.08-5.75l-3.94-.06-.09,5.95-.32.03c-10.89.86-12.43,4.85-14.56,10.36-.17.44-.34.88-.52,1.34-1.2,3.01-.17,7.35,2.68,11.35,2.49,3.49,6.86,7.14,11.64,6.91h.64s-.34,22.63-.34,22.63l-.37-.02c-6.49-.42-10.36-2.57-10.84-12.31l-5.15-.07c-.06,1.89-.02,11.35,6.3,14.78,2.92,1.58,6.17,2.58,9.66,2.97l.32.03-.09,5.9ZM333.58,110.91l.33-22.26.43.11c6.76,1.74,11.97,7.27,11.15,11.84h0c-.99,5.53-2.54,10.12-11.55,10.3h-.36ZM334.59,89.56l-.31,20.64c8.18-.28,9.56-4.39,10.51-9.72h0c.72-4.06-4.1-9.17-10.2-10.92ZM330.04,83.33l-.43-.12c-7.23-1.95-10.21-6.52-9.12-13.99l.02-.08c.02-.05,2.22-5.35,9.45-5.82l.38-.02-.3,20.03ZM321.18,69.37c-.99,6.88,1.68,11.15,8.18,13.05l.27-18.36c-6.25.57-8.25,4.84-8.45,5.31Z" style="fill: #231f20; stroke: #231f20; stroke-miterlimit: 10;"/>
    <path id="dollarsignLow" d="M104.5,244.34l.29-19.73c1.66.31,3.51.82,5.56,1.63,0,0,4.26,2.03,3.61,7.77l5.91.09s.89-15.63-14.99-15.72l.08-5.75-4.63-.07-.09,5.98c-11.99.95-12.92,5.73-15.38,11.92-2.73,6.86,5.91,19.15,14.66,18.74h.27l-.33,21.91c-6.45-.41-10.13-2.59-10.53-12.3l-5.82-.08s-.82,11.49,6.47,15.44c3.42,1.85,6.79,2.68,9.79,3.01l-.09,5.93,4.63.07.08-5.84c1.38-.05,2.57-.17,3.51-.27,3.51-.38,12.78-3.1,13.6-14.7.82-11.6-9.07-17.12-16.61-18v-.02h0ZM91.01,229.89s2.05-5.14,9.15-5.6l-.29,19.2c-5.66-1.52-10.12-5.03-8.86-13.6h0ZM115.31,261.15c-.94,5.3-2.3,9.84-11.21,10.02l.32-21.45c6.59,1.7,11.67,7.12,10.89,11.44h0Z" style="fill: #231f20; stroke: #231f20; stroke-miterlimit: 10;"/>
  </g>
  <g id="oatmeal">
    <g id="oatmealGroup">
      <path id="oats" d="M230.73,385.05s-26.02.87-30.04-28.48c-4.03-29.34,27.08-31.23,26.61-28.48-.48,2.75-1.82-31.38,30.04-32.55,0,0,16.36,2.41,15.45,4.07s3.76-4.54,14.59-4.07c10.83.47,19.74,8.95,19.74,8.95h10.3s9.62-17.48,30.04-17.09c20.42.39,30.04,17.9,30.04,17.9,0,0,7.86-3.87,19.74.81,0,0,7.79-12.69,23.18-10.58,15.38,2.11,24.94,4.98,30.04,24.41,0,0,16.26-2.01,24.89,17.09,0,0,16.69,3.78,17.17,23.6.48,19.82-20.44,25.72-25.75,24.41-5.31-1.31-236.03,0-236.03,0h0Z" style="fill: #f8dcb3; stroke: #231f20; stroke-miterlimit: 10;"/>
      <path id="spoon" d="M264.17,172.58l-12.04,6.03c-6.03,3.01-9.04,10.04-6.03,16.06l63.24,125.48c7.02-2.01,15.06-2.01,22.08,0l6.03-11.04-57.22-130.5c-3.01-6.03-10.04-8.03-16.06-6.03h0Z" style="fill: #ced0d1; stroke: #231f20; stroke-miterlimit: 10;"/>
      <path id="blueberries" d="M421.6,345.73c0-5.17,3.45-8.61,8.61-8.61s8.61,3.45,8.61,8.61-3.45,8.61-8.61,8.61-8.61-3.45-8.61-8.61ZM358.05,353.85c5.17,0,8.61-3.45,8.61-8.61s-3.45-8.61-8.61-8.61-8.61,3.45-8.61,8.61,3.45,8.61,8.61,8.61h0ZM394.66,333.78c5.17,0,8.61-3.45,8.61-8.61s-3.45-8.61-8.61-8.61-8.61,3.45-8.61,8.61,3.45,8.61,8.61,8.61ZM282.24,356.1c5.17,0,8.61-3.45,8.61-8.61s-3.45-8.61-8.61-8.61-8.61,3.45-8.61,8.61,3.45,8.61,8.61,8.61ZM268.56,323.5c5.17,0,8.61-3.45,8.61-8.61s-3.45-8.61-8.61-8.61-8.61,3.45-8.61,8.61,3.45,8.61,8.61,8.61Z" style="fill: #435fab; stroke: #231f20; stroke-miterlimit: 10; stroke-width: .2px;"/>
      <path id="topBowl" d="M499.84,362.38c0,75.82-69.48,137.28-155.18,137.28s-155.18-61.46-155.18-137.28h310.37,0Z" style="fill: #adaea7; stroke: #231f20; stroke-miterlimit: 10;"/>
      <rect id="bottom" x="287.93" y="484.58" width="113.44" height="27.36" style="fill: #182517; stroke: #231f20; stroke-miterlimit: 10;"/>
    </g>
  </g>
</svg>